<svg xmlns="http://www.w3.org/2000/svg" xml:space="preserve" viewBox="0 0 512 512"><g fill="none" stroke-linecap="round" stroke-linejoin="round" stroke-width="30.236" paint-order="markers stroke fill"><path stroke="#a684ff" d="M303.989 480c-44.9-36.5-9.1-73.5 4-68 48 20 189.5-75.6 8-108-112-20-111.7-138.3 52-116 88 12 165.8-40 24-88 3.1-83.91-79.4-87.14-119.3-55.14-25.2 20.18-33.4 54.35 7.3 91.14 32.1 29 102.7 70 156 76 82.4 9.2 97.1 121.3-64 124-55.1.9-144.5 30.1-64 76"/><path stroke="#312c85" d="M207.989 480c44.9-36.5 9.1-73.5-4-68-48 20-189.48-75.6-8-108 112-20 111.7-138.3-52-116-87.98 12-165.78-40-24-88-5.1-136.8 213.4-55.15 108 40-32.1 29-86.8 57.2-139.99 64-92.488 11.7-116.39 131.1 51.99 132 55.1.3 144.5 30.1 64 76"/></g></svg>
